<?xml version="1.0" encoding="UTF-8" standalone="no"?>
<!-- Created with Inkscape (http://www.inkscape.org/) -->

<svg
   xmlns:dc="http://purl.org/dc/elements/1.1/"
   xmlns:cc="http://creativecommons.org/ns#"
   xmlns:rdf="http://www.w3.org/1999/02/22-rdf-syntax-ns#"
   xmlns:svg="http://www.w3.org/2000/svg"
   xmlns="http://www.w3.org/2000/svg"
   xmlns:xlink="http://www.w3.org/1999/xlink"
   xmlns:sodipodi="http://sodipodi.sourceforge.net/DTD/sodipodi-0.dtd"
   xmlns:inkscape="http://www.inkscape.org/namespaces/inkscape"
   id="svg2"
   version="1.1"
   inkscape:version="0.91 r13725"
   width="266.94516"
   height="198.83733"
   xml:space="preserve"
   sodipodi:docname="abstractions.svg"><metadata
     id="metadata8"><rdf:RDF><cc:Work
         rdf:about=""><dc:format>image/svg+xml</dc:format><dc:type
           rdf:resource="http://purl.org/dc/dcmitype/StillImage" /><dc:title /></cc:Work></rdf:RDF></metadata><defs
     id="defs6"><marker
       inkscape:stockid="Arrow1Send"
       orient="auto"
       refY="0"
       refX="0"
       id="Arrow1Send"
       style="overflow:visible"><path
         id="path4284"
         d="M 0,0 5,-5 -12.5,0 5,5 0,0 z"
         style="fill-rule:evenodd;stroke:#000000;stroke-width:1pt"
         transform="matrix(-0.2,0,0,-0.2,-1.2,0)"
         inkscape:connector-curvature="0" /></marker><marker
       inkscape:stockid="Arrow1Mstart"
       orient="auto"
       refY="0"
       refX="0"
       id="Arrow1Mstart"
       style="overflow:visible"><path
         id="path4275"
         d="M 0,0 5,-5 -12.5,0 5,5 0,0 z"
         style="fill-rule:evenodd;stroke:#000000;stroke-width:1pt"
         transform="matrix(0.4,0,0,0.4,4,0)"
         inkscape:connector-curvature="0" /></marker><marker
       inkscape:stockid="Arrow1Mend"
       orient="auto"
       refY="0"
       refX="0"
       id="Arrow1Mend"
       style="overflow:visible"><path
         id="path4278"
         d="M 0,0 5,-5 -12.5,0 5,5 0,0 z"
         style="fill-rule:evenodd;stroke:#000000;stroke-width:1pt"
         transform="matrix(-0.4,0,0,-0.4,-4,0)"
         inkscape:connector-curvature="0" /></marker><marker
       inkscape:stockid="Arrow1Lend"
       orient="auto"
       refY="0"
       refX="0"
       id="Arrow1Lend"
       style="overflow:visible"><path
         id="path4272"
         d="M 0,0 5,-5 -12.5,0 5,5 0,0 z"
         style="fill-rule:evenodd;stroke:#000000;stroke-width:1pt"
         transform="matrix(-0.8,0,0,-0.8,-10,0)"
         inkscape:connector-curvature="0" /></marker><marker
       inkscape:stockid="Arrow2Lend"
       orient="auto"
       refY="0"
       refX="0"
       id="Arrow2Lend"
       style="overflow:visible"><path
         id="path4290"
         style="fill-rule:evenodd;stroke-width:0.625;stroke-linejoin:round"
         d="M 8.7185878,4.0337352 -2.2072895,0.01601326 8.7185884,-4.0017078 c -1.7454984,2.3720609 -1.7354408,5.6174519 -6e-7,8.035443 z"
         transform="matrix(-1.1,0,0,-1.1,-1.1,0)"
         inkscape:connector-curvature="0" /></marker><marker
       inkscape:stockid="Arrow1Mend"
       orient="auto"
       refY="0"
       refX="0"
       id="Arrow1Mend-8"
       style="overflow:visible"><path
         inkscape:connector-curvature="0"
         id="path4278-7"
         d="M 0,0 5,-5 -12.5,0 5,5 0,0 z"
         style="fill-rule:evenodd;stroke:#000000;stroke-width:1pt"
         transform="matrix(-0.4,0,0,-0.4,-4,0)" /></marker><marker
       inkscape:stockid="Arrow1Mend"
       orient="auto"
       refY="0"
       refX="0"
       id="Arrow1Mend-2"
       style="overflow:visible"><path
         inkscape:connector-curvature="0"
         id="path4278-9"
         d="M 0,0 5,-5 -12.5,0 5,5 0,0 z"
         style="fill-rule:evenodd;stroke:#000000;stroke-width:1pt"
         transform="matrix(-0.4,0,0,-0.4,-4,0)" /></marker><marker
       inkscape:stockid="Arrow1Mend"
       orient="auto"
       refY="0"
       refX="0"
       id="Arrow1Mend-3"
       style="overflow:visible"><path
         inkscape:connector-curvature="0"
         id="path4278-8"
         d="M 0,0 5,-5 -12.5,0 5,5 0,0 z"
         style="fill-rule:evenodd;stroke:#000000;stroke-width:1pt"
         transform="matrix(-0.4,0,0,-0.4,-4,0)" /></marker><marker
       inkscape:stockid="Arrow1Mstart"
       orient="auto"
       refY="0"
       refX="0"
       id="Arrow1Mstart-2"
       style="overflow:visible"><path
         inkscape:connector-curvature="0"
         id="path4275-2"
         d="M 0,0 5,-5 -12.5,0 5,5 0,0 z"
         style="fill-rule:evenodd;stroke:#000000;stroke-width:1pt"
         transform="matrix(0.4,0,0,0.4,4,0)" /></marker><marker
       inkscape:stockid="Arrow1Mend"
       orient="auto"
       refY="0"
       refX="0"
       id="Arrow1Mend-6"
       style="overflow:visible"><path
         inkscape:connector-curvature="0"
         id="path4278-3"
         d="M 0,0 5,-5 -12.5,0 5,5 0,0 z"
         style="fill-rule:evenodd;stroke:#000000;stroke-width:1pt"
         transform="matrix(-0.4,0,0,-0.4,-4,0)" /></marker><marker
       inkscape:stockid="Arrow1Mstart"
       orient="auto"
       refY="0"
       refX="0"
       id="Arrow1Mstart-6"
       style="overflow:visible"><path
         inkscape:connector-curvature="0"
         id="path4275-0"
         d="M 0,0 5,-5 -12.5,0 5,5 0,0 z"
         style="fill-rule:evenodd;stroke:#000000;stroke-width:1pt"
         transform="matrix(0.4,0,0,0.4,4,0)" /></marker><marker
       inkscape:stockid="Arrow1Mend"
       orient="auto"
       refY="0"
       refX="0"
       id="Arrow1Mend-9"
       style="overflow:visible"><path
         inkscape:connector-curvature="0"
         id="path4278-5"
         d="M 0,0 5,-5 -12.5,0 5,5 0,0 z"
         style="fill-rule:evenodd;stroke:#000000;stroke-width:1pt"
         transform="matrix(-0.4,0,0,-0.4,-4,0)" /></marker><marker
       inkscape:stockid="Arrow1Mend"
       orient="auto"
       refY="0"
       refX="0"
       id="Arrow1Mend-4"
       style="overflow:visible"><path
         id="path4278-1"
         d="M 0,0 5,-5 -12.5,0 5,5 0,0 Z"
         style="fill-rule:evenodd;stroke:#000000;stroke-width:1pt"
         transform="matrix(-0.4,0,0,-0.4,-4,0)"
         inkscape:connector-curvature="0" /></marker></defs><sodipodi:namedview
     pagecolor="#ffffff"
     bordercolor="#666666"
     borderopacity="1"
     objecttolerance="10"
     gridtolerance="10"
     guidetolerance="10"
     inkscape:pageopacity="0"
     inkscape:pageshadow="2"
     inkscape:window-width="1280"
     inkscape:window-height="948"
     id="namedview4"
     showgrid="false"
     fit-margin-top="1"
     fit-margin-left="1"
     fit-margin-right="1"
     fit-margin-bottom="1"
     inkscape:zoom="2.7533745"
     inkscape:cx="91.638732"
     inkscape:cy="72.630431"
     inkscape:window-x="0"
     inkscape:window-y="0"
     inkscape:window-maximized="1"
     inkscape:current-layer="g10" /><g
     id="g10"
     inkscape:groupmode="layer"
     inkscape:label="ink_ext_XXXXXX"
     transform="matrix(1.25,0,0,-1.25,-2.6930652,202.33708)"><text
       xml:space="preserve"
       style="font-style:normal;font-weight:normal;font-size:5px;line-height:125%;font-family:Sans;letter-spacing:0px;word-spacing:0px;fill:#000000;fill-opacity:1;stroke:none;stroke-width:1px;stroke-linecap:butt;stroke-linejoin:miter;stroke-opacity:1"
       x="124.38491"
       y="-44.896835"
       id="text5481"
       sodipodi:linespacing="125%"
       transform="scale(1,-1)"><tspan
         sodipodi:role="line"
         id="tspan5483"
         x="124.38491"
         y="-44.896835">Répartition physique des données</tspan><tspan
         sodipodi:role="line"
         x="124.38491"
         y="-38.646835"
         id="tspan5491">Choix des unités de stockage</tspan><tspan
         sodipodi:role="line"
         x="124.38491"
         y="-32.396835"
         id="tspan5487">(ex : fichiers, etc.)</tspan><tspan
         sodipodi:role="line"
         x="124.38491"
         y="-26.146835"
         id="tspan5489">Choix des paramètres phyisiques</tspan><tspan
         sodipodi:role="line"
         x="124.38491"
         y="-19.896835"
         id="tspan5508">de stockage</tspan></text>
<text
       xml:space="preserve"
       style="font-size:15px;font-style:normal;font-weight:normal;line-height:125%;letter-spacing:0px;word-spacing:0px;fill:#000000;fill-opacity:1;stroke:none;font-family:Sans"
       x="36.268539"
       y="62.486759"
       id="text3950"
       sodipodi:linespacing="125%"
       transform="matrix(0.8,0,0,-0.8,0,165)"><tspan
         sodipodi:role="line"
         id="tspan3952"
         x="36.268539"
         y="62.486759" /></text>
<g
       id="g5402"
       transform="translate(-2.079578,0)"><text
         transform="scale(1,-1)"
         sodipodi:linespacing="125%"
         id="text3765-8"
         y="-39.429749"
         x="93.405426"
         style="font-style:normal;font-weight:normal;font-size:6px;line-height:125%;font-family:Sans;text-align:center;letter-spacing:0px;word-spacing:0px;text-anchor:middle;fill:#000000;fill-opacity:1;stroke:none"
         xml:space="preserve"><tspan
           id="tspan3775-4"
           y="-39.429749"
           x="93.405426"
           sodipodi:role="line">SCHÉMA</tspan><tspan
           id="tspan4311"
           y="-31.929749"
           x="93.405426"
           sodipodi:role="line">PHYSIQUE</tspan></text>
<rect
         transform="scale(1,-1)"
         y="-49.010941"
         x="62.27018"
         height="22.982698"
         width="62.469711"
         id="rect4014-7-1"
         style="color:#000000;display:inline;overflow:visible;visibility:visible;fill:none;stroke:#800000;stroke-width:0.72799999;stroke-miterlimit:4;stroke-dasharray:none;stroke-opacity:1;marker:none;enable-background:accumulate" /></g><text
       xml:space="preserve"
       style="font-style:normal;font-weight:normal;font-size:6px;line-height:125%;font-family:Sans;text-align:center;letter-spacing:0px;word-spacing:0px;text-anchor:middle;fill:#000000;fill-opacity:1;stroke:none"
       x="91.325851"
       y="-79.009254"
       id="text3765-8-0"
       sodipodi:linespacing="125%"
       transform="scale(1,-1)"><tspan
         sodipodi:role="line"
         x="91.325851"
         y="-79.009254"
         id="tspan3775-4-2">SCHÉMA</tspan><tspan
         sodipodi:role="line"
         x="91.325851"
         y="-71.509254"
         id="tspan4311-5">LOGIQUE</tspan></text>
<rect
       style="color:#000000;display:inline;overflow:visible;visibility:visible;fill:none;stroke:#1e1d9a;stroke-width:0.72799999;stroke-miterlimit:4;stroke-dasharray:none;stroke-opacity:1;marker:none;enable-background:accumulate"
       id="rect4014-7-1-6"
       width="62.469715"
       height="22.982698"
       x="60.190598"
       y="-88.590446"
       transform="scale(1,-1)" /><g
       id="g5414"
       transform="translate(-27.648803,26.624418)"><text
         transform="scale(1,-1)"
         sodipodi:linespacing="125%"
         id="text3765-8-0-6"
         y="-93.944733"
         x="118.97465"
         style="font-style:normal;font-weight:normal;font-size:6px;line-height:125%;font-family:Sans;text-align:center;letter-spacing:0px;word-spacing:0px;text-anchor:middle;fill:#000000;fill-opacity:1;stroke:none"
         xml:space="preserve"><tspan
           id="tspan3775-4-2-8"
           y="-93.944733"
           x="118.97465"
           sodipodi:role="line">SCHÉMA</tspan><tspan
           id="tspan4311-5-7"
           y="-86.444733"
           x="118.97465"
           sodipodi:role="line">CONCEPTUEL</tspan></text>
<rect
         transform="scale(1,-1)"
         y="-103.52592"
         x="87.839401"
         height="22.982698"
         width="62.469715"
         id="rect4014-7-1-6-5"
         style="color:#000000;display:inline;overflow:visible;visibility:visible;fill:none;stroke:#800080;stroke-width:0.72799999;stroke-miterlimit:4;stroke-dasharray:none;stroke-opacity:1;marker:none;enable-background:accumulate" /></g><text
       xml:space="preserve"
       style="font-style:normal;font-weight:normal;font-size:6px;line-height:125%;font-family:Sans;text-align:center;letter-spacing:0px;word-spacing:0px;text-anchor:middle;fill:#000000;fill-opacity:1;stroke:none"
       x="20.720144"
       y="-115.87725"
       id="text3765-8-1"
       sodipodi:linespacing="125%"
       transform="scale(1,-1)"><tspan
         sodipodi:role="line"
         x="20.720144"
         y="-115.87725"
         id="tspan4311-8">RÉEL</tspan></text>
<ellipse
       style="color:#000000;display:inline;overflow:visible;visibility:visible;fill:none;fill-opacity:1;fill-rule:nonzero;stroke:#008000;stroke-width:0.72799999;stroke-miterlimit:4;stroke-dasharray:none;stroke-opacity:1;marker:none;enable-background:accumulate"
       id="path4398"
       cx="20.999929"
       cy="-118.65899"
       transform="scale(1,-1)"
       rx="16.756067"
       ry="13.471731" /><path
       style="fill:none;stroke:#000000;stroke-width:0.80000001px;stroke-linecap:butt;stroke-linejoin:miter;stroke-opacity:1;marker-end:url(#Arrow1Mend-4)"
       d="m 39.277447,118.64177 17.943029,0.0248"
       id="path4263"
       inkscape:connector-curvature="0"
       sodipodi:nodetypes="cc" /><text
       xml:space="preserve"
       style="font-style:normal;font-weight:normal;font-size:5px;line-height:125%;font-family:Sans;letter-spacing:0px;word-spacing:0px;fill:#000000;fill-opacity:1;stroke:none;stroke-width:1px;stroke-linecap:butt;stroke-linejoin:miter;stroke-opacity:1"
       x="124.17495"
       y="-125.81039"
       id="text5459"
       sodipodi:linespacing="125%"
       transform="scale(1,-1)"><tspan
         sodipodi:role="line"
         id="tspan5461"
         x="124.17495"
         y="-125.81039">Représentation du monde réel</tspan><tspan
         sodipodi:role="line"
         x="124.17495"
         y="-119.56039"
         id="tspan5465">Non redondant</tspan></text>
<text
       xml:space="preserve"
       style="font-style:normal;font-weight:normal;font-size:5px;line-height:125%;font-family:Sans;letter-spacing:0px;word-spacing:0px;fill:#000000;fill-opacity:1;stroke:none;stroke-width:1px;stroke-linecap:butt;stroke-linejoin:miter;stroke-opacity:1"
       x="124.38491"
       y="-84.04937"
       id="text5467"
       sodipodi:linespacing="125%"
       transform="scale(1,-1)"><tspan
         sodipodi:role="line"
         id="tspan5469"
         x="124.38491"
         y="-84.04937">Contraintes du SGBD utilisé</tspan><tspan
         sodipodi:role="line"
         x="124.38491"
         y="-77.79937"
         id="tspan5471">Chemins d'accès</tspan><tspan
         sodipodi:role="line"
         x="124.38491"
         y="-71.54937"
         id="tspan5473">Performances des traintements</tspan><tspan
         sodipodi:role="line"
         x="124.38491"
         y="-65.29937"
         id="tspan5477">Redondances autorisées</tspan><tspan
         sodipodi:role="line"
         x="124.38491"
         y="-59.04937"
         id="tspan5479">(optimisations)</tspan></text>
<use
       transform="matrix(-0.8,0,0,-0.8,210.15445,161.86966)"
       id="use8"
       x="0"
       y="0"
       width="260"
       height="1030"
       xlink:href="#llv" /><use
       transform="matrix(-0.8,0,0,-0.8,210.15445,161.86966)"
       id="use8-9"
       x="0"
       y="0"
       width="260"
       height="1030"
       xlink:href="#llv" /><use
       transform="matrix(-0.8,0,0,-0.8,210.15445,161.86966)"
       id="use8-97"
       x="0"
       y="0"
       width="260"
       height="1030"
       xlink:href="#llv" /><use
       transform="matrix(-0.8,0,0,-0.8,-21688.693,163.61543)"
       id="use8-3"
       x="0"
       y="0"
       width="260"
       height="1030"
       xlink:href="#llv" /><use
       transform="matrix(-0.8,0,0,-0.8,210.15445,161.86966)"
       id="use8-4"
       x="0"
       y="0"
       width="260"
       height="1030"
       xlink:href="#llv" /><g
       transform="scale(1,-1)"
       style="font-style:normal;font-weight:normal;font-size:80px;line-height:125%;font-family:Sans;letter-spacing:0px;word-spacing:0px;fill:none;fill-opacity:1;stroke:none;stroke-width:1px;stroke-linecap:butt;stroke-linejoin:miter;stroke-opacity:1"
       id="text4960"><path
         d="m 56.106282,-26.345928 0,5.625 -2.421875,0 q -9.726562,0 -13.046875,-2.890625 -3.28125,-2.890625 -3.28125,-11.523438 l 0,-9.335937 q 0,-5.898438 -2.109375,-8.164063 -2.109375,-2.265625 -7.65625,-2.265625 l -2.382812,0 0,-5.585937 2.382812,0 q 5.585938,0 7.65625,-2.226563 2.109375,-2.265625 2.109375,-8.085937 l 0,-9.375 q 0,-8.632813 3.28125,-11.484375 3.320313,-2.890625 13.046875,-2.890625 l 2.421875,0 0,5.585937 -2.65625,0 q -5.507812,0 -7.1875,1.71875 -1.679687,1.71875 -1.679687,7.226563 l 0,9.6875 q 0,6.132812 -1.796875,8.90625 -1.757813,2.773437 -6.054688,3.75 4.335938,1.054687 6.09375,3.828125 1.757813,2.773437 1.757813,8.867187 l 0,9.6875 q 0,5.507813 1.679687,7.226563 1.679688,1.71875 7.1875,1.71875 l 2.65625,0 z"
         style="fill:none"
         id="path4965" /></g><g
       transform="scale(0.79892292,-1.2516852)"
       style="font-style:normal;font-weight:normal;font-size:25.03370476px;line-height:125%;font-family:Sans;letter-spacing:0px;word-spacing:0px;fill:#000000;fill-opacity:1;stroke:none;stroke-width:1px;stroke-linecap:butt;stroke-linejoin:miter;stroke-opacity:1"
       id="text4973"><path
         d="m 65.881592,-22.827054 0,1.760182 -0.757856,0 c -2.029099,0 -3.389981,-0.301513 -4.082645,-0.904538 -0.684515,-0.603026 -1.026773,-1.805002 -1.026773,-3.605929 l 0,-15.704181 c 0,-1.230498 -0.220023,-2.082068 -0.660069,-2.554709 -0.440045,-0.472642 -1.196092,-0.714051 -2.353239,-0.711024 l -0.788197,0.0021 0,-1.747959 0.745633,0 c 1.165306,0 1.963907,-0.232247 2.395803,-0.696739 0.440046,-0.472642 0.660069,-1.316062 0.660069,-2.530262 l 0,-15.716404 c 0,-1.800927 0.342258,-2.998829 1.026773,-3.593706 0.692664,-0.603025 2.246416,-0.966091 4.275516,-0.966091 l 0.757856,0 0,1.747959 -1.024068,0.06155 c -1.143947,0.06876 -1.898715,0.179278 -2.249122,0.537833 -0.350407,0.358556 -0.52561,1.112338 -0.52561,2.261345 l 0,15.814193 c 0,1.279391 -0.187427,2.208376 -0.56228,2.786955 -0.366705,0.578578 -0.998252,0.96973 -1.894641,1.173455 0.904538,0.220022 1.540159,0.619323 1.906864,1.197902 0.366705,0.578578 0.550057,1.503489 0.550057,2.774732 l 0,15.814192 c 0,1.149008 0.175203,1.902789 0.52561,2.261345 0.350407,0.358556 1.100114,0.537834 2.249122,0.537834 z"
         id="path4978"
         inkscape:connector-curvature="0"
         sodipodi:nodetypes="ccscssssccscsscsccssssccsssssc" /></g><text
       xml:space="preserve"
       style="font-style:normal;font-weight:normal;font-size:6px;line-height:125%;font-family:Sans;text-align:center;letter-spacing:0px;word-spacing:0px;text-anchor:middle;fill:#000000;fill-opacity:1;stroke:none"
       x="26.025427"
       y="-54.679039"
       id="text3765-8-0-5"
       sodipodi:linespacing="125%"
       transform="scale(1,-1)"><tspan
         sodipodi:role="line"
         x="26.025427"
         y="-54.679039"
         id="tspan4311-5-2">INTERNE</tspan></text>
</g></svg>